<?xml version="1.0" encoding="UTF-8"?>
<!DOCTYPE svg PUBLIC "-//W3C//DTD SVG 1.1//EN" "http://www.w3.org/Graphics/SVG/1.1/DTD/svg11.dtd">
<!-- Creator: CorelDRAW X7 -->
<svg xmlns="http://www.w3.org/2000/svg" xml:space="preserve" width="297mm" height="210mm" version="1.1" style="shape-rendering:geometricPrecision; text-rendering:geometricPrecision; image-rendering:optimizeQuality; fill-rule:evenodd; clip-rule:evenodd"
viewBox="0 0 29700 21000"
 xmlns:xlink="http://www.w3.org/1999/xlink">
 <defs>
  <style type="text/css">
   <![CDATA[
    .fil41 {fill:none}
    .fil12 {fill:#064D8F}
    .fil13 {fill:#084985}
    .fil11 {fill:#086DC9}
    .fil24 {fill:#210C01}
    .fil39 {fill:#3A90E0}
    .fil4 {fill:#401F08}
    .fil35 {fill:#4F3608}
    .fil1 {fill:#54290D}
    .fil30 {fill:#572913}
    .fil31 {fill:#634713}
    .fil2 {fill:#683716}
    .fil29 {fill:#6B3318}
    .fil33 {fill:#806126}
    .fil7 {fill:#826227}
    .fil6 {fill:#8A6623}
    .fil10 {fill:#8A6725}
    .fil34 {fill:#8F4C2B}
    .fil8 {fill:#916C27}
    .fil17 {fill:#946F29}
    .fil3 {fill:#9E653F}
    .fil37 {fill:#A18440}
    .fil5 {fill:#A37B33}
    .fil38 {fill:#A8A6A6}
    .fil27 {fill:#BDBDBD}
    .fil20 {fill:#C28E13}
    .fil9 {fill:#C79F56}
    .fil42 {fill:#C7C5C5}
    .fil21 {fill:#D19A1B}
    .fil15 {fill:#E3C378}
    .fil28 {fill:#E6C578}
    .fil18 {fill:#E8AE25}
    .fil26 {fill:#F0EDED}
    .fil19 {fill:#F7D78C}
    .fil14 {fill:#F7DB9A}
    .fil32 {fill:#FCE9BD}
    .fil22 {fill:white}
    .fil40 {fill:#053F75;fill-rule:nonzero}
    .fil0 {fill:#524F4F;fill-opacity:0.250980}
    .fil36 {fill:#E6E6E6;fill-opacity:0.788235}
    .fil16 {fill:url(#id0)}
    .fil23 {fill:url(#id1)}
    .fil25 {fill:url(#id2)}
   ]]>
  </style>
  <linearGradient id="id0" gradientUnits="userSpaceOnUse" x1="16145.3" y1="3491.77" x2="16525.4" y2="7951.86">
   <stop offset="0" style="stop-opacity:1; stop-color:#A37B33"/>
   <stop offset="1" style="stop-opacity:1; stop-color:#A37B33"/>
  </linearGradient>
  <radialGradient id="id1" gradientUnits="userSpaceOnUse" gradientTransform="matrix(0.647817 -0.141915 0.236048 1.07752 4246 1818)" cx="16139.7" cy="6092.62" r="787.58" fx="16139.7" fy="6092.62">
   <stop offset="0" style="stop-opacity:1; stop-color:#C46A4C"/>
   <stop offset="1" style="stop-opacity:1; stop-color:#331405"/>
  </radialGradient>
  <radialGradient id="id2" gradientUnits="userSpaceOnUse" gradientTransform="matrix(0.54821 -0 -0 1 8262 0)" cx="18286.5" cy="5960.12" r="647.05" fx="18286.5" fy="5960.12">
   <stop offset="0" style="stop-opacity:1; stop-color:#7F412A"/>
   <stop offset="1" style="stop-opacity:1; stop-color:#351506"/>
  </radialGradient>
 </defs>
 <g id="Layer_x0020_1">
  <metadata id="CorelCorpID_0Corel-Layer"/>
  <path class="fil0" d="M16337 17352c3574,0 6472,661 6472,1476 0,815 -2898,1476 -6472,1476 -3574,0 -6472,-661 -6472,-1476 0,-815 2898,-1476 6472,-1476z"/>
  <path class="fil1" d="M14131 17612c-586,70 -5254,-587 -7116,-5583 -752,-1883 2099,-4231 3925,-3346 1374,838 2765,6722 4695,8275 -543,116 -961,539 -1504,654z"/>
  <path class="fil2" d="M11058 8768c1337,1088 2703,6682 4577,8190 -523,111 -929,508 -1444,640 -2733,-862 -5424,-2766 -6677,-6108 -198,-1316 1955,-3373 3544,-2722z"/>
  <path class="fil3" d="M12051 11136c-806,-150 -1614,-206 -2414,-191 -582,10 -1120,61 -1734,169 1386,-89 2763,-82 4148,22z"/>
  <path class="fil3" d="M10513 9497c-318,756 -544,1534 -700,2319 -114,571 -179,1107 -204,1730 208,-1373 508,-2717 904,-4049z"/>
  <path class="fil3" d="M12465 12189c-806,-151 -1614,-206 -2414,-192 -582,11 -1120,61 -1734,169 1386,-88 2763,-82 4148,23z"/>
  <path class="fil3" d="M11397 10225c-318,756 -544,1533 -700,2318 -114,571 -179,1108 -204,1730 208,-1372 508,-2716 904,-4048z"/>
  <path class="fil3" d="M13057 13271c-806,-150 -1614,-206 -2414,-191 -582,10 -1120,61 -1734,169 1386,-89 2763,-82 4148,22z"/>
  <path class="fil3" d="M12271 11171c-318,755 -544,1533 -700,2318 -113,571 -179,1108 -203,1730 208,-1373 507,-2717 903,-4048z"/>
  <path class="fil3" d="M13649 14354c-806,-150 -1614,-206 -2414,-191 -582,10 -1120,61 -1734,169 1386,-89 2763,-82 4148,22z"/>
  <path class="fil3" d="M13164 12096c-319,756 -545,1533 -701,2318 -113,571 -178,1108 -203,1730 208,-1373 507,-2716 904,-4048z"/>
  <path class="fil4" d="M12060 11137c-1405,-216 -2791,-224 -4157,-23 1386,-89 2772,-81 4157,23z"/>
  <path class="fil4" d="M10517 9489c-511,1327 -813,2679 -908,4057 208,-1373 511,-2725 908,-4057z"/>
  <path class="fil4" d="M12474 12190c-1405,-217 -2791,-224 -4157,-24 1386,-88 2772,-81 4157,24z"/>
  <path class="fil4" d="M11400 10216c-510,1328 -812,2680 -907,4057 208,-1372 511,-2725 907,-4057z"/>
  <path class="fil4" d="M13066 13273c-1405,-217 -2791,-225 -4157,-24 1386,-89 2772,-81 4157,24z"/>
  <path class="fil4" d="M12275 11162c-511,1327 -813,2680 -907,4057 208,-1373 510,-2725 907,-4057z"/>
  <path class="fil4" d="M13658 14355c-1405,-216 -2791,-224 -4157,-23 1386,-89 2772,-81 4157,23z"/>
  <path class="fil4" d="M13167 12087c-510,1328 -813,2680 -907,4057 208,-1373 510,-2725 907,-4057z"/>
  <path class="fil5" d="M18947 11942c-142,-528 -290,-1500 -431,-2029 1476,289 2571,1271 3006,1675 129,234 11,1195 -226,1306 -927,102 -1969,-653 -2349,-952z"/>
  <path class="fil6" d="M20929 12893c-744,-78 -1313,-565 -1694,-852 -79,-329 -81,-783 -160,-1112 593,785 998,1631 1854,1964z"/>
  <path class="fil2" d="M14981 18213c-471,-201 -861,-327 -1332,-528 -650,79 -1077,488 -1313,806 -221,342 30,510 430,356 -194,365 -106,517 605,196 -480,1073 1550,-82 1610,-830z"/>
  <path class="fil1" d="M14981 18213c-471,-201 -861,-327 -1332,-528 -123,15 -237,42 -344,77 420,415 924,709 1463,899 121,-152 202,-307 213,-448z"/>
  <path class="fil2" d="M17673 18192c471,-200 860,-327 1331,-527 651,78 1078,487 1314,805 221,342 -30,511 -430,356 193,366 106,518 -606,196 481,1073 -1549,-81 -1609,-830z"/>
  <path class="fil1" d="M17673 18192c383,-163 713,-277 1076,-422l775 40 0 0c-354,400 -913,717 -1569,911 -159,-177 -269,-363 -282,-529z"/>
  <path class="fil5" d="M14607 9370c1322,126 2114,-90 3436,36 1259,1122 2694,4846 2126,7605 -582,1997 -7027,2283 -7432,-197 -591,-2284 1052,-5426 1870,-7444z"/>
  <path class="fil7" d="M14988 9399c1105,58 1865,-106 3055,7 189,168 382,395 571,668 -1248,676 -2703,654 -4328,58 63,-145 123,-287 181,-424l521 -309z"/>
  <path class="fil7" d="M18404 9792c105,131 210,277 314,437 515,1078 777,2076 762,3054 -182,467 -683,537 -898,24 -12,-799 -115,-1856 -719,-3365 173,-56 353,-106 541,-150z"/>
  <path class="fil7" d="M14009 10774c114,-265 226,-522 331,-768 734,983 897,2146 769,3410 -146,568 -866,567 -898,24 89,-882 146,-1786 -202,-2666z"/>
  <path class="fil8" d="M20239 14682c90,800 80,1598 -70,2329 -582,1997 -7027,2283 -7432,-197 -72,-276 -110,-566 -122,-864 1519,3080 7628,2118 7624,-1268z"/>
  <path class="fil9" d="M18026 18410c-1043,263 -2309,260 -3420,-25 48,-229 83,-488 110,-769 1287,380 2827,195 3954,-454 -123,522 -334,964 -644,1248z"/>
  <path class="fil5" d="M13951 11841c142,-528 304,-1440 446,-1968 -915,97 -2522,738 -2944,1596 -294,600 727,2106 1392,2628 219,-351 521,-730 740,-1080 -111,-197 -394,-586 -357,-669 91,-206 463,-302 723,-507z"/>
  <path class="fil10" d="M14121 11104c80,-371 160,-766 236,-1075 -34,-46 -69,-92 -105,-137 -26,4 -52,9 -79,13 -191,45 -307,57 -482,114 238,344 330,732 430,1085z"/>
  <path class="fil5" d="M21348 10299c-561,881 -1038,1825 -209,2604 999,27 1378,-1057 1099,-2590 -230,-66 -578,-87 -890,-14z"/>
  <path class="fil11" d="M19649 12172c538,1509 833,3320 520,4839 -582,1997 -7027,2283 -7432,-197 -357,-1380 101,-3073 700,-4642 2377,916 4450,926 6212,0z"/>
  <path class="fil12" d="M12781 14299c108,-505 261,-1018 436,-1523 362,-172 975,318 818,645 -39,97 -241,-137 -507,-96 352,203 452,229 403,408 -55,159 -394,-3 -632,86 305,-7 589,67 479,370 -115,132 -560,54 -980,121 -5,-3 -11,-7 -17,-11z"/>
  <path class="fil12" d="M20288 15298c27,591 -7,1171 -119,1713 -582,1997 -7027,2283 -7432,-197 -123,-474 -149,-985 -107,-1516 1285,3367 7007,3053 7658,0z"/>
  <path class="fil13" d="M18546 12618c293,-86 579,-194 857,-324 56,333 82,662 77,989 -182,467 -683,537 -898,24 -3,-211 -12,-439 -36,-689z"/>
  <path class="fil13" d="M14278 12462c295,89 585,164 870,224 0,239 -14,482 -39,730 -146,568 -866,567 -898,24 33,-324 61,-651 67,-978z"/>
  <path class="fil14" d="M12976 13096c130,-894 1263,-179 1056,253 -40,96 -241,-138 -508,-97 352,203 452,229 403,408 -55,160 -394,-3 -632,86 305,-7 589,68 479,370 -115,133 -560,54 -979,122 -269,-177 -246,-511 -11,-602 -104,-191 -122,-466 192,-540z"/>
  <path class="fil15" d="M13798 14010c-2,32 -10,67 -24,106 -115,133 -560,54 -979,122 -143,-94 -203,-232 -194,-354 18,103 88,186 205,210 143,73 845,83 992,-84z"/>
  <path class="fil15" d="M13884 13712c-110,63 -388,-35 -589,34 -91,-10 -93,-1 -186,-8 291,-155 549,-32 776,-31l-1 5z"/>
  <path class="fil15" d="M13993 13372c-79,-5 -253,-153 -469,-120 -108,-56 -223,-108 -339,-161 333,10 617,83 808,281zm-257 0c89,52 146,90 176,131 -53,-46 -112,-90 -176,-131z"/>
  <path class="fil11" d="M14329 9848c-219,49 -427,105 -625,170 762,1100 700,2258 587,3382 31,543 752,545 898,-24 133,-1314 -49,-2520 -860,-3528z"/>
  <path class="fil11" d="M18580 9760c-218,48 -426,105 -624,169 604,1508 707,2566 719,3365 215,513 716,443 898,-25 17,-1114 -325,-2253 -993,-3509z"/>
  <path class="fil16" d="M21391 7768c-151,1430 -2346,2566 -5032,2566 -2287,0 -4217,-823 -4833,-1951 -185,8 -420,140 -499,198 -102,-394 92,-737 293,-952 -234,41 -387,161 -775,322 70,-1298 739,-2034 1860,-2028 -13,-147 -20,-297 -20,-448 0,-2411 1693,-4365 3780,-4365 2088,0 3780,1954 3780,4365 0,74 -2,148 -5,221 886,-187 1748,312 2185,1420 -304,-45 -472,-60 -815,-17 249,99 451,283 582,602 -174,-18 -343,-10 -501,67z"/>
  <path class="fil17" d="M12405 5923c-13,-147 -20,-297 -20,-448 0,-507 76,-994 213,-1446 1292,-197 2585,-393 3877,-590 1074,160 2148,320 3222,479 160,484 248,1009 248,1557 -424,-1583 -5611,-628 -6482,-136 396,107 873,571 1047,909 -656,-380 -1367,-436 -2105,-325z"/>
  <path class="fil18" d="M15491 1008c-2435,488 -3095,2428 -3223,4096 2610,-1016 6749,-1585 7616,-955 -447,-2208 -2226,-3525 -4393,-3141z"/>
  <path class="fil18" d="M15979 736c-346,-102 -942,-1 -1154,218 -8,8 -3,222 -6,240 1665,697 2319,1643 2189,2781 475,-30 949,-60 1423,-90 -172,-1449 -1018,-2726 -2452,-3149z"/>
  <path class="fil19" d="M15979 736c-346,-102 -942,-1 -1154,218 -1,1 -2,10 -3,23 253,-159 613,-300 1059,-213 1182,324 1932,1270 2320,2330 43,77 85,154 128,232 -302,-1210 -1104,-2222 -2350,-2590z"/>
  <path class="fil20" d="M14825 954c-8,8 -3,222 -6,240 1328,472 2271,1576 2200,2660 155,24 320,47 506,71 -371,-1736 -1557,-2730 -2700,-2971z"/>
  <path class="fil21" d="M19905 4837c3330,-2990 -5359,-1937 -7637,267 2888,-904 7616,-1850 7637,-267z"/>
  <ellipse class="fil22" transform="matrix(1.06655 -0.329905 0.329905 1.06655 16187 6048.35)" rx="655" ry="1089"/>
  <path class="fil23" d="M15954 5244c282,-62 593,268 696,737 103,469 -43,899 -324,960 -282,62 -594,-268 -696,-737 -103,-468 42,-898 324,-960z"/>
  <ellipse class="fil24" transform="matrix(0.318063 -0.0558315 0.0558315 0.318063 16167.8 6110.09)" rx="655" ry="1089"/>
  <ellipse class="fil22" transform="matrix(-0.985801 -0.304926 -0.304926 0.985801 18537.6 5989.29)" rx="655" ry="1089"/>
  <path class="fil25" d="M18311 5094c279,32 478,430 447,900 -31,478 -291,851 -578,832 -139,-9 -260,-108 -343,-262 -46,-223 -31,-496 55,-774 91,-294 244,-538 419,-696z"/>
  <path class="fil26" d="M17023 7868c403,-39 807,-78 1211,-116 58,383 -5,747 -218,1087 -208,19 -416,37 -624,56 -53,-343 -182,-685 -369,-1027z"/>
  <path class="fil27" d="M17580 7814l164 -15c62,271 51,603 -14,776 -8,-251 -31,-503 -150,-761z"/>
  <path class="fil14" d="M17698 7058c274,-62 548,-124 822,-185 196,-118 406,-217 581,-314 1003,-558 1707,2146 -1403,1308 -1138,503 -1624,629 -2251,537 -897,-133 -2083,-1480 -737,-1800 768,-182 1874,183 2988,454z"/>
  <path class="fil28" d="M19927 6981c151,581 -321,1400 -2229,886 -1138,503 -1624,629 -2251,537 -501,-74 -1092,-527 -1282,-968 818,773 1971,920 3497,371 1237,66 2162,-89 2265,-826z"/>
  <path class="fil29" d="M17699 7648c-403,21 -1318,-703 -1008,-934 327,-244 1519,-365 1958,-105 341,201 -478,1014 -950,1039z"/>
  <path class="fil30" d="M17699 7648c-394,21 -1277,-671 -1027,-918 652,943 1679,734 2057,41 -26,309 -644,856 -1030,877z"/>
  <path class="fil5" d="M12845 5458c89,-123 178,-246 267,-369 83,-783 -823,-1634 -2080,-1321 111,1483 1263,1974 1813,1690z"/>
  <path class="fil17" d="M12845 5458c89,-123 178,-246 267,-369 63,-594 -444,-1227 -1241,-1362 1292,731 1270,1982 -62,1574 362,250 769,294 1036,157z"/>
  <path class="fil31" d="M12568 5281c-10,-14 -55,-135 -49,-141 10,-11 203,-71 225,-102 55,-515 -541,-1076 -1369,-869 73,976 831,1299 1193,1112z"/>
  <path class="fil14" d="M22341 10530c-338,74 -610,54 -991,-110 -553,-519 -65,-1228 -247,-1903 72,-180 325,-199 522,-17 152,149 145,376 101,560 703,114 893,818 615,1470z"/>
  <path class="fil32" d="M21104 8518c0,0 -1,-1 -1,-1 72,-180 325,-199 522,-17 137,133 145,330 113,501 -5,-458 -299,-682 -634,-483z"/>
  <path class="fil15" d="M22341 10530c-253,56 -539,69 -836,-49 401,-99 131,-403 132,-446 4,-238 -7,-456 -137,-579 71,-129 148,-262 226,-396l620 413c160,288 155,681 -5,1057z"/>
  <path class="fil33" d="M18281 9294c-607,523 -1293,579 -1843,78 611,205 1346,156 1843,-78z"/>
  <path class="fil34" d="M17330 6608c321,-134 1168,-92 1244,87 -287,-102 -845,-142 -1244,-87z"/>
  <path class="fil35" d="M14753 5567c18,-886 1078,-1718 1852,-804 -770,-327 -1537,111 -1852,804z"/>
  <path class="fil35" d="M19711 5355c-16,-730 -889,-1415 -1526,-662 634,-270 1266,91 1526,662z"/>
  <path class="fil36" d="M16207 5554c74,-1 140,77 149,174 10,97 -42,176 -116,177 -73,1 -140,-77 -149,-174 -9,-97 43,-177 116,-177z"/>
  <path class="fil36" d="M16023 6285c29,0 55,31 59,69 3,38 -17,70 -46,70 -29,0 -55,-30 -59,-69 -3,-38 17,-69 46,-70z"/>
  <ellipse class="fil24" transform="matrix(0.322661 0.0130838 -0.0130838 0.322661 18253.7 5954.17)" rx="655" ry="1089"/>
  <path class="fil36" d="M18437 5436c72,15 121,106 109,202 -12,97 -79,164 -151,149 -72,-15 -121,-105 -109,-202 12,-97 80,-163 151,-149z"/>
  <path class="fil36" d="M18075 6094c28,6 48,42 43,80 -5,38 -31,65 -60,59 -28,-6 -47,-42 -43,-80 5,-38 32,-64 60,-59z"/>
  <circle class="fil37" cx="15278" cy="7045" r="71"/>
  <circle class="fil37" transform="matrix(0.857027 -0.113131 0.113131 0.857027 19445.2 6857.82)" r="62"/>
  <circle class="fil37" cx="15517" cy="7281" r="71"/>
  <circle class="fil37" transform="matrix(0.857027 -0.113131 0.113131 0.857027 19613.3 6975.98)" r="62"/>
  <circle class="fil37" cx="15180" cy="7351" r="71"/>
  <circle class="fil37" transform="matrix(0.857027 -0.113131 0.113131 0.857027 19412.8 7057.02)" r="62"/>
  <circle class="fil38" cx="14708" cy="13362" r="221"/>
  <circle class="fil38" cx="19150" cy="12945" r="204"/>
  <path class="fil11" d="M15714 14214c785,171 1690,32 2427,-151 0,679 0,1358 0,2037 -600,877 -1841,954 -2427,151 0,-679 0,-1358 0,-2037z"/>
  <path class="fil12" d="M18025 16251c-633,732 -1760,754 -2311,0 0,-526 0,-1051 0,-1577 740,166 1491,161 2255,-8 -313,296 -1124,522 -1697,464 -33,1552 594,1459 1753,1121z"/>
  <path class="fil39" d="M15714 14214c785,171 1690,32 2427,-151 0,679 0,1358 0,2037 -65,-601 -63,-1268 -128,-1869 -753,207 -1698,248 -2299,-3l0 -14z"/>
  <path class="fil40" d="M15721 14181c389,85 808,93 1222,57 414,-36 823,-116 1190,-207l42 -11 0 43 0 2037 0 11 -6 8c-113,165 -249,303 -398,412 -265,193 -574,297 -881,310 -307,12 -611,-68 -867,-243 -125,-86 -239,-195 -336,-327l-6 -9 0 -11 0 -2037 0 -42 40 9zm1227 124c-405,35 -816,28 -1200,-50l0 1985c90,122 196,223 313,302 243,167 534,244 827,232 293,-12 589,-112 843,-297 141,-103 269,-232 377,-387l0 -1984c-360,88 -757,164 -1160,199z"/>
  <path class="fil41" d="M15714 14674c797,247 1607,176 2427,-97"/>
  <path class="fil40" d="M15724 14642c394,122 792,166 1193,145 402,-21 807,-106 1214,-242l21 64c-413,137 -824,224 -1231,245 -409,21 -815,-23 -1217,-148l20 -64z"/>
  <path class="fil22" d="M17555 16229l-396 7 -54 -219 -208 3 -39 257 -384 6 282 -1268 500 -8 299 1222zm-480 -543l-75 -347 -67 349 142 -2z"/>
  <path class="fil42" d="M16531 16282l-57 1 12 -53c14,19 29,36 45,52zm201 -1158l24 -109 500 -8 3 12c-170,49 -351,86 -527,105z"/>
  <path class="fil7" d="M13437 12172c-69,58 -139,117 -209,176 -40,-243 -154,-453 -330,-637 312,22 603,-55 886,-168 -174,219 -285,428 -347,629z"/>
  <path class="fil14" d="M21814 10351c-78,-73 -59,-269 16,-358 205,-55 439,24 635,48 97,119 -20,409 -106,424 -223,-24 -322,-90 -545,-114z"/>
  <path class="fil15" d="M21806 10028c7,-13 15,-25 24,-35 205,-55 439,24 635,48 19,24 21,45 26,78 -249,-4 -465,-39 -685,-91z"/>
  <path class="fil14" d="M21715 9980c-49,-116 -64,-332 18,-430 222,-59 547,-6 760,20 97,151 77,383 -12,491 -242,-27 -523,-54 -766,-81z"/>
  <path class="fil15" d="M21680 9840c-13,-106 -2,-225 53,-290 222,-59 547,-6 760,20 20,30 26,38 36,73 -338,43 -488,-23 -742,-30 -71,57 -85,176 -107,227z"/>
  <path class="fil14" d="M21708 9537c-96,-125 -140,-263 -9,-455 263,-71 521,-90 773,-58 92,237 109,347 26,554 -266,-8 -503,-10 -790,-41z"/>
  <path class="fil32" d="M21620 9272c2,-55 34,-124 79,-190 263,-71 521,-90 773,-58 41,106 63,209 68,308 -26,-68 -55,-136 -107,-199 -233,-71 -455,-45 -673,17 -69,34 -107,65 -140,122z"/>
 </g>
</svg>
